<?xml version="1.0" encoding="UTF-8"?>
<svg xmlns="http://www.w3.org/2000/svg" width="313.5309565067291" height="88.39399909973145" viewBox="2.2210500240325928 20.006000518798828 313.5309565067291 88.39399909973145" preserveAspectRatio="none">
  <g>
    <defs>
      <path id="s-Path_1-d1224" d="M2.8590500354766846 28.190000534057617 L2.8590500354766846 27.04599952697754 L13.243000030517578 27.04599952697754 L13.243000030517578 28.190000534057617 L2.8590500354766846 28.190000534057617 Z M12.428999900817871 20.600000381469727 L13.66100025177002 20.600000381469727 L13.66100025177002 36.0 L12.428999900817871 36.0 L12.428999900817871 20.600000381469727 Z M2.2210500240325928 20.600000381469727 L3.4310500621795654 20.600000381469727 L3.4310500621795654 36.0 L2.2210500240325928 36.0 L2.2210500240325928 20.600000381469727 Z M17.763500213623047 28.299999237060547 C17.763500213623047 29.576000213623047 18.034900665283203 30.719999313354492 18.577499389648438 31.73200035095215 C19.134899139404297 32.74399948120117 19.890199661254883 33.54330062866211 20.8435001373291 34.130001068115234 C21.811500549316406 34.70199966430664 22.911500930786133 34.987998962402344 24.14349937438965 34.987998962402344 C25.375499725341797 34.987998962402344 26.46820068359375 34.70199966430664 27.421499252319336 34.130001068115234 C28.38949966430664 33.54330062866211 29.144899368286133 32.74399948120117 29.6875 31.73200035095215 C30.230199813842773 30.719999313354492 30.50149917602539 29.576000213623047 30.50149917602539 28.299999237060547 C30.50149917602539 27.009300231933594 30.230199813842773 25.865299224853516 29.6875 24.868000030517578 C29.144899368286133 23.856000900268555 28.38949966430664 23.06399917602539 27.421499252319336 22.492000579833984 C26.46820068359375 21.90530014038086 25.375499725341797 21.61199951171875 24.14349937438965 21.61199951171875 C22.911500930786133 21.61199951171875 21.811500549316406 21.90530014038086 20.8435001373291 22.492000579833984 C19.890199661254883 23.06399917602539 19.134899139404297 23.856000900268555 18.577499389648438 24.868000030517578 C18.034900665283203 25.865299224853516 17.763500213623047 27.009300231933594 17.763500213623047 28.299999237060547 Z M16.487499237060547 28.299999237060547 C16.487499237060547 27.170700073242188 16.678199768066406 26.12929916381836 17.059499740600586 25.176000595092773 C17.440900802612305 24.20800018310547 17.976200103759766 23.371999740600586 18.66550064086914 22.667999267578125 C19.354900360107422 21.94930076599121 20.161500930786133 21.392000198364258 21.085500717163086 20.996000289916992 C22.024200439453125 20.600000381469727 23.043500900268555 20.402000427246094 24.14349937438965 20.402000427246094 C25.243499755859375 20.402000427246094 26.25550079345703 20.600000381469727 27.179500579833984 20.996000289916992 C28.118200302124023 21.392000198364258 28.932199478149414 21.94930076599121 29.62150001525879 22.667999267578125 C30.31089973449707 23.371999740600586 30.846200942993164 24.20800018310547 31.227500915527344 25.176000595092773 C31.60890007019043 26.12929916381836 31.79949951171875 27.170700073242188 31.79949951171875 28.299999237060547 C31.79949951171875 29.42930030822754 31.60890007019043 30.47800064086914 31.227500915527344 31.445999145507812 C30.846200942993164 32.39929962158203 30.31089973449707 33.23529815673828 29.62150001525879 33.95399856567383 C28.932199478149414 34.65800094604492 28.118200302124023 35.20800018310547 27.179500579833984 35.604000091552734 C26.25550079345703 36.0 25.243499755859375 36.198001861572266 24.14349937438965 36.198001861572266 C23.043500900268555 36.198001861572266 22.024200439453125 36.0 21.085500717163086 35.604000091552734 C20.161500930786133 35.20800018310547 19.354900360107422 34.65800094604492 18.66550064086914 33.95399856567383 C17.976200103759766 33.23529815673828 17.440900802612305 32.39929962158203 17.059499740600586 31.445999145507812 C16.678199768066406 30.47800064086914 16.487499237060547 29.42930030822754 16.487499237060547 28.299999237060547 Z M34.61949920654297 20.600000381469727 L35.829498291015625 20.600000381469727 L35.829498291015625 34.85599899291992 L42.1875 34.85599899291992 L42.1875 36.0 L34.61949920654297 36.0 L34.61949920654297 20.600000381469727 Z M44.307899475097656 20.600000381469727 L45.51789855957031 20.600000381469727 L45.51789855957031 36.0 L44.307899475097656 36.0 L44.307899475097656 20.600000381469727 Z M49.164398193359375 20.600000381469727 L50.3744010925293 20.600000381469727 L50.3744010925293 36.0 L49.164398193359375 36.0 L49.164398193359375 20.600000381469727 Z M53.344398498535156 36.0 L49.82440185546875 36.0 L49.82440185546875 34.790000915527344 L53.344398498535156 34.790000915527344 C54.297698974609375 34.790000915527344 55.16310119628906 34.63600158691406 55.940399169921875 34.327999114990234 C56.732398986816406 34.02000045776367 57.407100677490234 33.58729934692383 57.96440124511719 33.029998779296875 C58.52170181274414 32.45800018310547 58.94710159301758 31.775999069213867 59.24039840698242 30.983999252319336 C59.54840087890625 30.17729949951172 59.70240020751953 29.282699584960938 59.70240020751953 28.299999237060547 C59.70240020751953 27.31730079650879 59.54840087890625 26.43000030517578 59.24039840698242 25.63800048828125 C58.94710159301758 24.831300735473633 58.52170181274414 24.14929962158203 57.96440124511719 23.591999053955078 C57.407100677490234 23.020000457763672 56.732398986816406 22.579999923706055 55.940399169921875 22.27199935913086 C55.16310119628906 21.964000701904297 54.297698974609375 21.809999465942383 53.344398498535156 21.809999465942383 L49.82440185546875 21.809999465942383 L49.82440185546875 20.600000381469727 L53.344398498535156 20.600000381469727 C54.84040069580078 20.600000381469727 56.153099060058594 20.922700881958008 57.28239822387695 21.56800079345703 C58.42639923095703 22.213300704956055 59.31370162963867 23.115299224853516 59.944400787353516 24.27400016784668 C60.589698791503906 25.417999267578125 60.91239929199219 26.760000228881836 60.91239929199219 28.299999237060547 C60.91239929199219 29.84000015258789 60.589698791503906 31.189300537109375 59.944400787353516 32.347999572753906 C59.31370162963867 33.492000579833984 58.42639923095703 34.38669967651367 57.28239822387695 35.03200149536133 C56.153099060058594 35.67729949951172 54.84040069580078 36.0 53.344398498535156 36.0 Z M64.29679870605469 30.829999923706055 L64.69280242919922 29.68600082397461 L71.79879760742188 29.68600082397461 L72.1948013305664 30.829999923706055 L64.29679870605469 30.829999923706055 Z M68.21279907226562 22.799999237060547 L65.2208023071289 30.082000732421875 L65.08879852294922 30.34600067138672 L62.77880096435547 36.0 L61.414798736572266 36.0 L68.21279907226562 20.006000518798828 L75.01080322265625 36.0 L73.64679718017578 36.0 L71.35880279541016 30.43400001525879 L71.2488021850586 30.148000717163086 L68.21279907226562 22.799999237060547 Z M83.95230102539062 20.600000381469727 L85.31629943847656 20.600000381469727 L80.14630126953125 29.663999557495117 L80.14630126953125 36.0 L78.9363021850586 36.0 L78.9363021850586 29.68600082397461 L73.85430145263672 20.600000381469727 L75.21829986572266 20.600000381469727 L79.5302963256836 28.56399917602539 L83.95230102539062 20.600000381469727 Z M153.95899963378906 28.190000534057617 L153.95899963378906 27.04599952697754 L164.34300231933594 27.04599952697754 L164.34300231933594 28.190000534057617 L153.95899963378906 28.190000534057617 Z M163.5290069580078 20.600000381469727 L164.76100158691406 20.600000381469727 L164.76100158691406 36.0 L163.5290069580078 36.0 L163.5290069580078 20.600000381469727 Z M153.3209991455078 20.600000381469727 L154.531005859375 20.600000381469727 L154.531005859375 36.0 L153.3209991455078 36.0 L153.3209991455078 20.600000381469727 Z M168.86300659179688 28.299999237060547 C168.86300659179688 29.576000213623047 169.13400268554688 30.719999313354492 169.677001953125 31.73200035095215 C170.23399353027344 32.74399948120117 170.99000549316406 33.54330062866211 171.9429931640625 34.130001068115234 C172.91099548339844 34.70199966430664 174.01100158691406 34.987998962402344 175.2429962158203 34.987998962402344 C176.47500610351562 34.987998962402344 177.5679931640625 34.70199966430664 178.52099609375 34.130001068115234 C179.48899841308594 33.54330062866211 180.24400329589844 32.74399948120117 180.78700256347656 31.73200035095215 C181.3300018310547 30.719999313354492 181.6009979248047 29.576000213623047 181.6009979248047 28.299999237060547 C181.6009979248047 27.009300231933594 181.3300018310547 25.865299224853516 180.78700256347656 24.868000030517578 C180.24400329589844 23.856000900268555 179.48899841308594 23.06399917602539 178.52099609375 22.492000579833984 C177.5679931640625 21.90530014038086 176.47500610351562 21.61199951171875 175.2429962158203 21.61199951171875 C174.01100158691406 21.61199951171875 172.91099548339844 21.90530014038086 171.9429931640625 22.492000579833984 C170.99000549316406 23.06399917602539 170.23399353027344 23.856000900268555 169.677001953125 24.868000030517578 C169.13400268554688 25.865299224853516 168.86300659179688 27.009300231933594 168.86300659179688 28.299999237060547 Z M167.58700561523438 28.299999237060547 C167.58700561523438 27.170700073242188 167.7779998779297 26.12929916381836 168.15899658203125 25.176000595092773 C168.5399932861328 24.20800018310547 169.0760040283203 23.371999740600586 169.76499938964844 22.667999267578125 C170.45399475097656 21.94930076599121 171.26100158691406 21.392000198364258 172.18499755859375 20.996000289916992 C173.12399291992188 20.600000381469727 174.14300537109375 20.402000427246094 175.2429962158203 20.402000427246094 C176.34300231933594 20.402000427246094 177.35499572753906 20.600000381469727 178.2790069580078 20.996000289916992 C179.21800231933594 21.392000198364258 180.03199768066406 21.94930076599121 180.7209930419922 22.667999267578125 C181.41000366210938 23.371999740600586 181.9459991455078 24.20800018310547 182.32699584960938 25.176000595092773 C182.70799255371094 26.12929916381836 182.8990020751953 27.170700073242188 182.8990020751953 28.299999237060547 C182.8990020751953 29.42930030822754 182.70799255371094 30.47800064086914 182.32699584960938 31.445999145507812 C181.9459991455078 32.39929962158203 181.41000366210938 33.23529815673828 180.7209930419922 33.95399856567383 C180.03199768066406 34.65800094604492 179.21800231933594 35.20800018310547 178.2790069580078 35.604000091552734 C177.35499572753906 36.0 176.34300231933594 36.198001861572266 175.2429962158203 36.198001861572266 C174.14300537109375 36.198001861572266 173.12399291992188 36.0 172.18499755859375 35.604000091552734 C171.26100158691406 35.20800018310547 170.45399475097656 34.65800094604492 169.76499938964844 33.95399856567383 C169.0760040283203 33.23529815673828 168.5399932861328 32.39929962158203 168.15899658203125 31.445999145507812 C167.7779998779297 30.47800064086914 167.58700561523438 29.42930030822754 167.58700561523438 28.299999237060547 Z M187.45700073242188 23.812000274658203 L186.13699340820312 36.0 L184.927001953125 36.0 L186.70899963378906 20.006000518798828 L192.86900329589844 31.841999053955078 L199.0290069580078 20.006000518798828 L200.81100463867188 36.0 L199.6009979248047 36.0 L198.281005859375 23.812000274658203 L192.86900329589844 34.21799850463867 L187.45700073242188 23.812000274658203 Z M204.36099243164062 36.0 L204.36099243164062 34.85599899291992 L211.9949951171875 34.85599899291992 L211.9949951171875 36.0 L204.36099243164062 36.0 Z M204.36099243164062 21.743999481201172 L204.36099243164062 20.600000381469727 L211.9949951171875 20.600000381469727 L211.9949951171875 21.743999481201172 L204.36099243164062 21.743999481201172 Z M204.36099243164062 28.124000549316406 L204.36099243164062 26.979999542236328 L211.55499267578125 26.979999542236328 L211.55499267578125 28.124000549316406 L204.36099243164062 28.124000549316406 Z M203.72300720214844 20.600000381469727 L204.93299865722656 20.600000381469727 L204.93299865722656 36.0 L203.72300720214844 36.0 L203.72300720214844 20.600000381469727 Z "></path>
      <path id="s-Path_2-d1224" d="M105.88099670410156 81.4000015258789 C101.41500091552734 81.4000015258789 97.8145980834961 80.63330078125 95.081298828125 79.0999984741211 C92.54789733886719 77.56670379638672 91.28130340576172 75.63330078125 91.28130340576172 73.30000305175781 C91.28130340576172 71.36669921875 92.1812973022461 69.4000015258789 93.9813003540039 67.4000015258789 C95.51460266113281 65.86669921875 98.1146011352539 64.2667007446289 101.78099822998047 62.599998474121094 C105.98100280761719 60.86669921875 109.71499633789062 60.0 112.98100280761719 60.0 C115.11499786376953 60.0 116.91500091552734 60.400001525878906 118.38099670410156 61.20000076293945 C118.64800262451172 61.266700744628906 118.78099822998047 61.400001525878906 118.78099822998047 61.599998474121094 C118.78099822998047 61.79999923706055 118.61499786376953 61.900001525878906 118.28099822998047 61.900001525878906 C117.947998046875 61.900001525878906 117.68099975585938 61.86669921875 117.48100280761719 61.79999923706055 C116.61499786376953 61.599998474121094 115.58100128173828 61.5 114.38099670410156 61.5 C111.11499786376953 61.5 107.51499938964844 62.29999923706055 103.58100128173828 63.900001525878906 C99.91459655761719 65.43329620361328 97.41459655761719 67.0 96.081298828125 68.5999984741211 C94.6146011352539 70.2667007446289 93.88130187988281 71.7667007446289 93.88130187988281 73.0999984741211 C93.88130187988281 74.83329772949219 94.91459655761719 76.16670227050781 96.9813003540039 77.0999984741211 C99.1146011352539 78.0999984741211 101.98100280761719 78.5999984741211 105.58100128173828 78.5999984741211 C106.78099822998047 78.5999984741211 108.01499938964844 78.5333023071289 109.28099822998047 78.4000015258789 C110.61499786376953 78.33329772949219 111.947998046875 78.16670227050781 113.28099822998047 77.9000015258789 C118.5479965209961 77.0999984741211 122.71499633789062 75.4666976928711 125.78099822998047 73.0 C128.6479949951172 70.7332992553711 130.08099365234375 68.0999984741211 130.08099365234375 65.0999984741211 C130.08099365234375 62.233299255371094 128.781005859375 59.66669845581055 126.18099975585938 57.400001525878906 C125.64800262451172 60.06669998168945 124.8479995727539 62.5 123.78099822998047 64.69999694824219 C122.78099822998047 66.83329772949219 121.51499938964844 68.7667007446289 119.98100280761719 70.5 C116.58100128173828 74.30000305175781 112.38099670410156 76.4000015258789 107.38099670410156 76.80000305175781 C107.18099975585938 76.80000305175781 107.0479965209961 76.66670227050781 106.98100280761719 76.4000015258789 C106.98100280761719 76.19999694824219 107.11499786376953 76.06670379638672 107.38099670410156 76.0 C112.38099670410156 75.5999984741211 116.48100280761719 73.5 119.68099975585938 69.69999694824219 C122.68099975585938 66.2332992553711 124.51499938964844 61.86669921875 125.18099975585938 56.599998474121094 C124.31500244140625 55.86669921875 123.31500244140625 55.16669845581055 122.18099975585938 54.5 C118.91500091552734 52.766700744628906 116.5479965209961 51.16669845581055 115.08100128173828 49.70000076293945 C112.74800109863281 47.5 111.58100128173828 45.03329849243164 111.58100128173828 42.29999923706055 C111.58100128173828 38.56669998168945 113.947998046875 35.03329849243164 118.68099975585938 31.700000762939453 C115.41500091552734 28.299999237060547 111.48100280761719 26.600000381469727 106.88099670410156 26.600000381469727 C104.28099822998047 26.600000381469727 101.61499786376953 27.200000762939453 98.88130187988281 28.399999618530273 C96.88130187988281 29.33329963684082 95.2479019165039 30.86669921875 93.9813003540039 33.0 C92.78130340576172 35.13330078125 92.1812973022461 37.33330154418945 92.1812973022461 39.599998474121094 C92.1812973022461 41.46670150756836 92.581298828125 43.06669998168945 93.38130187988281 44.400001525878906 C94.9813003540039 46.79999923706055 97.3145980834961 48.0 100.38099670410156 48.0 C103.24800109863281 48.0 105.38099670410156 46.93330001831055 106.78099822998047 44.79999923706055 C106.91500091552734 44.66669845581055 107.0479965209961 44.599998474121094 107.18099975585938 44.599998474121094 C107.38099670410156 44.66669845581055 107.48100280761719 44.79999923706055 107.48100280761719 45.0 C107.48100280761719 45.86669921875 106.51499938964844 46.766700744628906 104.58100128173828 47.70000076293945 C102.98100280761719 48.36669921875 101.5479965209961 48.70000076293945 100.28099822998047 48.70000076293945 C96.88130187988281 48.70000076293945 94.3145980834961 47.400001525878906 92.581298828125 44.79999923706055 C91.64790344238281 43.33330154418945 91.1812973022461 41.66669845581055 91.1812973022461 39.79999923706055 C91.1812973022461 37.400001525878906 91.847900390625 35.03329849243164 93.1812973022461 32.70000076293945 C94.581298828125 30.36669921875 96.38130187988281 28.700000762939453 98.581298828125 27.700000762939453 C101.58100128173828 26.36669921875 104.58100128173828 25.700000762939453 107.58100128173828 25.700000762939453 C112.71499633789062 25.700000762939453 116.91500091552734 27.399999618530273 120.18099975585938 30.799999237060547 C125.24800109863281 27.66670036315918 129.81500244140625 25.899999618530273 133.88099670410156 25.5 C134.1479949951172 25.433300018310547 134.38099670410156 25.399999618530273 134.58099365234375 25.399999618530273 C134.84800720214844 25.399999618530273 135.11500549316406 25.399999618530273 135.38099670410156 25.399999618530273 C139.6479949951172 25.399999618530273 142.01499938964844 26.933300018310547 142.4810028076172 30.0 C142.61500549316406 30.13330078125 142.61500549316406 30.36669921875 142.4810028076172 30.700000762939453 L142.38099670410156 31.200000762939453 C142.38099670410156 31.399999618530273 142.447998046875 31.433300018310547 142.58099365234375 31.299999237060547 L144.08099365234375 30.399999618530273 L144.281005859375 30.399999618530273 C145.01499938964844 30.399999618530273 145.38099670410156 30.733299255371094 145.38099670410156 31.399999618530273 C145.38099670410156 32.20000076293945 145.01499938964844 33.06669998168945 144.281005859375 34.0 C141.1479949951172 37.33330154418945 139.2480010986328 39.0 138.58099365234375 39.0 C138.38099670410156 39.0 138.281005859375 38.86669921875 138.281005859375 38.599998474121094 C138.281005859375 37.93330001831055 138.9149932861328 36.36669921875 140.18099975585938 33.900001525878906 C140.71499633789062 32.83330154418945 140.9810028076172 31.966699600219727 140.9810028076172 31.299999237060547 C140.9810028076172 29.033300399780273 139.21499633789062 28.0 135.68099975585938 28.200000762939453 L133.68099975585938 28.299999237060547 C131.4810028076172 28.36669921875 129.38099670410156 28.799999237060547 127.38099670410156 29.600000381469727 C125.38099670410156 30.33329963684082 123.447998046875 31.266700744628906 121.58100128173828 32.400001525878906 C125.11499786376953 37.13330078125 126.88099670410156 43.03329849243164 126.88099670410156 50.099998474121094 C126.88099670410156 51.63330078125 126.78099822998047 53.16669845581055 126.58100128173828 54.70000076293945 C131.781005859375 57.766700744628906 134.38099670410156 61.233299255371094 134.38099670410156 65.0999984741211 C134.38099670410156 68.63330078125 132.11500549316406 72.0 127.58100128173828 75.19999694824219 C123.24800109863281 78.13330078125 118.447998046875 80.0 113.18099975585938 80.80000305175781 C110.58100128173828 81.19999694824219 108.14800262451172 81.4000015258789 105.88099670410156 81.4000015258789 Z M125.58100128173828 51.400001525878906 C125.58100128173828 44.20000076293945 123.78099822998047 38.20000076293945 120.18099975585938 33.400001525878906 C116.51499938964844 36.20000076293945 114.68099975585938 39.233299255371094 114.68099975585938 42.5 C114.68099975585938 44.56669998168945 115.447998046875 46.43330001831055 116.98100280761719 48.099998474121094 C118.51499938964844 49.766700744628906 120.71499633789062 51.400001525878906 123.58100128173828 53.0 L125.58100128173828 54.099998474121094 L125.58100128173828 51.400001525878906 Z M145.6840057373047 75.4000015258789 C143.75 75.0 142.78399658203125 73.4666976928711 142.78399658203125 70.80000305175781 C142.78399658203125 69.06670379638672 143.2169952392578 67.36669921875 144.08399963378906 65.69999694824219 L143.48399353027344 66.30000305175781 L141.08399963378906 68.5 C140.88400268554688 68.7667007446289 140.6840057373047 68.9000015258789 140.48399353027344 68.9000015258789 C140.14999389648438 68.9000015258789 139.98399353027344 68.7332992553711 139.98399353027344 68.4000015258789 C140.11700439453125 68.06670379638672 140.35000610351562 67.7332992553711 140.6840057373047 67.4000015258789 C141.9499969482422 66.2667007446289 143.14999389648438 65.0999984741211 144.28399658203125 63.900001525878906 C145.41700744628906 62.63330078125 146.48399353027344 61.33330154418945 147.48399353027344 60.0 C148.01699829101562 59.400001525878906 148.61700439453125 59.099998474121094 149.28399658203125 59.099998474121094 C150.08399963378906 59.099998474121094 150.48399353027344 59.43330001831055 150.48399353027344 60.099998474121094 C150.48399353027344 60.43330001831055 149.88400268554688 61.599998474121094 148.6840057373047 63.599998474121094 C148.01699829101562 64.7332992553711 147.48399353027344 65.63330078125 147.08399963378906 66.30000305175781 C146.6840057373047 66.9666976928711 146.4499969482422 67.36669921875 146.38400268554688 67.5 C145.64999389648438 69.0999984741211 145.28399658203125 70.5 145.28399658203125 71.69999694824219 C145.28399658203125 72.7667007446289 145.5500030517578 73.36669921875 146.08399963378906 73.5 L146.78399658203125 73.5999984741211 C148.11700439453125 73.5999984741211 149.61700439453125 72.69999694824219 151.28399658203125 70.9000015258789 C152.9499969482422 69.0333023071289 154.38400268554688 66.80000305175781 155.58399963378906 64.19999694824219 C155.38400268554688 61.20000076293945 155.7169952392578 58.83330154418945 156.58399963378906 57.099998474121094 C157.38400268554688 55.63330078125 158.28399658203125 54.900001525878906 159.28399658203125 54.900001525878906 C160.41700744628906 54.900001525878906 160.98399353027344 55.63330078125 160.98399353027344 57.099998474121094 C160.98399353027344 57.29999923706055 160.91700744628906 57.66669845581055 160.78399658203125 58.20000076293945 C160.31700134277344 60.266700744628906 159.11700439453125 62.099998474121094 157.1840057373047 63.70000076293945 C157.25 65.16670227050781 157.85000610351562 66.5333023071289 158.98399353027344 67.80000305175781 C160.11700439453125 69.0 161.48399353027344 69.5999984741211 163.08399963378906 69.5999984741211 C164.88400268554688 69.5999984741211 166.61700439453125 68.69999694824219 168.28399658203125 66.9000015258789 C168.81700134277344 66.36669921875 169.11700439453125 66.2667007446289 169.1840057373047 66.5999984741211 C169.25 66.66670227050781 169.28399658203125 66.80000305175781 169.28399658203125 67.0 C169.28399658203125 67.13330078125 169.1840057373047 67.36669921875 168.98399353027344 67.69999694824219 C167.25 69.63330078125 165.25 70.5999984741211 162.98399353027344 70.5999984741211 C161.38400268554688 70.5999984741211 159.9499969482422 70.13330078125 158.6840057373047 69.19999694824219 C157.41700744628906 68.19999694824219 156.5500030517578 67.0 156.08399963378906 65.5999984741211 C154.75 68.5999984741211 153.0500030517578 71.06670379638672 150.98399353027344 73.0 C148.98399353027344 74.86669921875 147.2169952392578 75.66670227050781 145.6840057373047 75.4000015258789 Z M183.73699951171875 50.0 C183.13699340820312 50.0 182.60299682617188 49.766700744628906 182.13699340820312 49.29999923706055 C181.6699981689453 48.766700744628906 181.43699645996094 48.20000076293945 181.43699645996094 47.599998474121094 C181.43699645996094 46.733299255371094 181.77000427246094 46.06669998168945 182.43699645996094 45.599998474121094 C182.97000122070312 45.13330078125 183.57000732421875 44.900001525878906 184.23699951171875 44.900001525878906 C185.77000427246094 44.900001525878906 186.53700256347656 45.56669998168945 186.53700256347656 46.900001525878906 C186.53700256347656 48.96670150756836 185.60299682617188 50.0 183.73699951171875 50.0 Z M136.83700561523438 108.4000015258789 C133.7030029296875 108.4000015258789 131.23699951171875 107.5999984741211 129.43699645996094 106.0 C127.56999969482422 104.46700286865234 126.63700103759766 102.46700286865234 126.63700103759766 100.0 C126.63700103759766 97.19999694824219 128.10299682617188 94.2332992553711 131.03700256347656 91.0999984741211 C134.30299377441406 87.63330078125 138.93699645996094 84.56670379638672 144.93699645996094 81.9000015258789 C151.73699951171875 78.83329772949219 159.60299682617188 76.2332992553711 168.53700256347656 74.0999984741211 C169.2030029296875 72.16670227050781 169.73699951171875 70.5333023071289 170.13699340820312 69.19999694824219 C170.60299682617188 67.86669921875 170.97000122070312 66.86669921875 171.23699951171875 66.19999694824219 C172.5030059814453 62.86669921875 173.6699981689453 60.66669845581055 174.73699951171875 59.599998474121094 C175.53700256347656 58.79999923706055 176.60299682617188 58.400001525878906 177.93699645996094 58.400001525878906 C179.27000427246094 58.400001525878906 179.93699645996094 58.70000076293945 179.93699645996094 59.29999923706055 C179.93699645996094 59.43330001831055 179.8699951171875 59.56669998168945 179.73699951171875 59.70000076293945 C179.0030059814453 60.5 178.13699340820312 61.70000076293945 177.13699340820312 63.29999923706055 C176.2030029296875 64.83329772949219 175.30299377441406 66.4666976928711 174.43699645996094 68.19999694824219 C173.63699340820312 69.93329620361328 172.97000122070312 71.56670379638672 172.43699645996094 73.0999984741211 C172.97000122070312 72.9666976928711 173.43699645996094 72.9000015258789 173.83700561523438 72.9000015258789 C174.30299377441406 72.9000015258789 174.77000427246094 72.9000015258789 175.23699951171875 72.9000015258789 C179.5030059814453 72.9000015258789 181.63699340820312 73.9666976928711 181.63699340820312 76.0999984741211 C181.63699340820312 77.2332992553711 181.0030059814453 78.33329772949219 179.73699951171875 79.4000015258789 C179.6699981689453 79.5999984741211 179.53700256347656 79.69999694824219 179.33700561523438 79.69999694824219 C179.07000732421875 79.69999694824219 178.93699645996094 79.5999984741211 178.93699645996094 79.4000015258789 C178.93699645996094 79.13330078125 179.03700256347656 78.9666976928711 179.23699951171875 78.9000015258789 C180.03700256347656 77.9666976928711 180.43699645996094 77.19999694824219 180.43699645996094 76.5999984741211 C180.43699645996094 75.2667007446289 179.10299682617188 74.5999984741211 176.43699645996094 74.5999984741211 L171.43699645996094 75.4000015258789 C167.63699340820312 84.5333023071289 162.83700561523438 92.0999984741211 157.03700256347656 98.0999984741211 C150.3699951171875 104.96700286865234 143.63699340820312 108.4000015258789 136.83700561523438 108.4000015258789 Z M136.63699340820312 106.4000015258789 C139.10299682617188 106.4000015258789 142.07000732421875 105.5999984741211 145.53700256347656 104.0 C150.80299377441406 101.5999984741211 155.4029998779297 97.66670227050781 159.33700561523438 92.19999694824219 C162.2030029296875 88.13330078125 165.10299682617188 82.66670227050781 168.03700256347656 75.80000305175781 C164.7030029296875 76.66670227050781 161.77000427246094 77.4666976928711 159.23699951171875 78.19999694824219 C156.63699340820312 79.0 154.47000122070312 79.7332992553711 152.73699951171875 80.4000015258789 C149.80299377441406 81.4666976928711 147.1699981689453 82.56670379638672 144.83700561523438 83.69999694824219 C142.43699645996094 84.9000015258789 140.33700561523438 86.13330078125 138.53700256347656 87.4000015258789 C137.27000427246094 88.33329772949219 136.13699340820312 89.33329772949219 135.13699340820312 90.4000015258789 C134.07000732421875 91.4666976928711 133.1699981689453 92.63330078125 132.43699645996094 93.9000015258789 C131.03700256347656 96.16670227050781 130.33700561523438 98.4000015258789 130.33700561523438 100.5999984741211 C130.33700561523438 104.46700286865234 132.43699645996094 106.4000015258789 136.63699340820312 106.4000015258789 Z M189.06399536132812 75.9000015258789 C185.19700622558594 75.9000015258789 183.26400756835938 73.7667007446289 183.26400756835938 69.5 C183.26400756835938 68.0333023071289 183.7969970703125 66.19999694824219 184.86399841308594 64.0 C185.93099975585938 61.733299255371094 187.2310028076172 59.86669921875 188.76400756835938 58.400001525878906 C190.63099670410156 56.66669845581055 192.33099365234375 55.79999923706055 193.86399841308594 55.79999923706055 C195.93099975585938 55.79999923706055 196.96400451660156 56.83330154418945 196.96400451660156 58.900001525878906 C196.96400451660156 60.233299255371094 196.43099975585938 61.56669998168945 195.36399841308594 62.900001525878906 C193.36399841308594 65.30000305175781 190.56399536132812 66.93329620361328 186.96400451660156 67.80000305175781 C186.89700317382812 68.2667007446289 186.83099365234375 68.69999694824219 186.76400756835938 69.0999984741211 C186.76400756835938 69.43329620361328 186.76400756835938 69.7667007446289 186.76400756835938 70.0999984741211 C186.76400756835938 72.9000015258789 188.06399536132812 74.30000305175781 190.66400146484375 74.30000305175781 C192.7310028076172 74.30000305175781 195.33099365234375 73.43329620361328 198.46400451660156 71.69999694824219 C199.7969970703125 70.9666976928711 200.9969940185547 70.19999694824219 202.06399536132812 69.4000015258789 C203.13099670410156 68.5999984741211 204.031005859375 67.83329772949219 204.76400756835938 67.0999984741211 C205.56399536132812 66.16670227050781 205.96400451660156 66.0999984741211 205.96400451660156 66.9000015258789 C205.96400451660156 67.2332992553711 205.83099365234375 67.5333023071289 205.56399536132812 67.80000305175781 C204.83099365234375 68.66670227050781 203.86399841308594 69.56670379638672 202.66400146484375 70.5 C201.531005859375 71.36669921875 200.13099670410156 72.2332992553711 198.46400451660156 73.0999984741211 C194.93099975585938 74.9666976928711 191.7969970703125 75.9000015258789 189.06399536132812 75.9000015258789 Z M187.36399841308594 66.69999694824219 C190.63099670410156 65.63330078125 192.86399841308594 64.0333023071289 194.06399536132812 61.900001525878906 C194.86399841308594 60.56669998168945 195.26400756835938 59.43330001831055 195.26400756835938 58.5 C195.26400756835938 57.766700744628906 195.031005859375 57.400001525878906 194.56399536132812 57.400001525878906 C194.031005859375 57.400001525878906 193.2969970703125 57.900001525878906 192.36399841308594 58.900001525878906 C191.43099975585938 59.83330154418945 190.4969940185547 61.0 189.56399536132812 62.400001525878906 C188.69700622558594 63.79999923706055 187.96400451660156 65.2332992553711 187.36399841308594 66.69999694824219 Z M210.55799865722656 75.0 C207.89100646972656 74.93329620361328 206.25799560546875 73.56670379638672 205.6580047607422 70.9000015258789 C205.59100341796875 70.43329620361328 205.5240020751953 70.0 205.45799255371094 69.5999984741211 C205.45799255371094 69.19999694824219 205.45799255371094 68.80000305175781 205.45799255371094 68.4000015258789 C205.45799255371094 65.86669921875 206.1580047607422 62.96670150756836 207.55799865722656 59.70000076293945 C206.6909942626953 59.766700744628906 206.05799865722656 59.79999923706055 205.6580047607422 59.79999923706055 C205.25799560546875 59.79999923706055 205.12399291992188 59.83330154418945 205.25799560546875 59.900001525878906 C204.1909942626953 59.766700744628906 203.6580047607422 59.33330154418945 203.6580047607422 58.599998474121094 L203.6580047607422 58.400001525878906 C203.6580047607422 57.93330001831055 204.12399291992188 57.70000076293945 205.05799865722656 57.70000076293945 L206.85800170898438 57.599998474121094 L208.6580047607422 57.599998474121094 C208.9239959716797 57.06669998168945 209.32400512695312 56.29999923706055 209.85800170898438 55.29999923706055 C210.39100646972656 54.233299255371094 211.09100341796875 52.96670150756836 211.95799255371094 51.5 C212.4239959716797 50.70000076293945 212.95799255371094 49.79999923706055 213.55799865722656 48.79999923706055 C214.2239990234375 47.79999923706055 214.9239959716797 46.733299255371094 215.6580047607422 45.599998474121094 C216.59100341796875 44.79999923706055 217.7239990234375 44.400001525878906 219.05799865722656 44.400001525878906 C220.25799560546875 44.400001525878906 220.85800170898438 44.70000076293945 220.85800170898438 45.29999923706055 C220.85800170898438 45.43330001831055 220.79100036621094 45.56669998168945 220.6580047607422 45.70000076293945 C219.79100036621094 46.900001525878906 218.6909942626953 48.5 217.35800170898438 50.5 C216.0240020751953 52.5 214.45799255371094 54.86669921875 212.6580047607422 57.599998474121094 L222.45799255371094 57.599998474121094 C223.05799865722656 57.79999923706055 223.35800170898438 58.06669998168945 223.35800170898438 58.400001525878906 C223.35800170898438 59.0 222.62399291992188 59.400001525878906 221.1580047607422 59.599998474121094 C220.89100646972656 59.66669845581055 219.95799255371094 59.70000076293945 218.35800170898438 59.70000076293945 C216.75799560546875 59.70000076293945 214.49099731445312 59.70000076293945 211.55799865722656 59.70000076293945 C209.49099731445312 63.56669998168945 208.45799255371094 66.69999694824219 208.45799255371094 69.0999984741211 C208.45799255371094 71.83329772949219 209.62399291992188 73.19999694824219 211.95799255371094 73.19999694824219 C213.09100341796875 73.19999694824219 214.32400512695312 72.83329772949219 215.6580047607422 72.0999984741211 C216.59100341796875 71.56670379638672 217.55799865722656 70.9000015258789 218.55799865722656 70.0999984741211 C219.55799865722656 69.2332992553711 220.59100341796875 68.2332992553711 221.6580047607422 67.0999984741211 C221.99099731445312 66.69999694824219 222.29100036621094 66.5 222.55799865722656 66.5 C222.82400512695312 66.5 222.95799255371094 66.63330078125 222.95799255371094 66.9000015258789 C222.95799255371094 67.2332992553711 222.85800170898438 67.5 222.6580047607422 67.69999694824219 C217.99099731445312 72.63330078125 213.95799255371094 75.06670379638672 210.55799865722656 75.0 Z M226.6479949951172 75.0 C223.51400756835938 74.86669921875 221.947998046875 73.0 221.947998046875 69.4000015258789 C221.947998046875 68.4666976928711 222.04800415039062 67.33329772949219 222.2480010986328 66.0 C222.51400756835938 64.66670227050781 222.88099670410156 63.13330078125 223.34800720214844 61.400001525878906 C224.01400756835938 59.13330078125 224.947998046875 56.63330078125 226.1479949951172 53.900001525878906 C227.34800720214844 51.099998474121094 228.84800720214844 48.06669998168945 230.6479949951172 44.79999923706055 C235.2480010986328 36.266700744628906 239.18099975585938 32.0 242.447998046875 32.0 C244.2480010986328 32.0 245.1479949951172 33.06669998168945 245.1479949951172 35.20000076293945 C245.1479949951172 36.13330078125 244.947998046875 37.16669845581055 244.54800415039062 38.29999923706055 C242.68099975585938 44.233299255371094 237.11399841308594 51.16669845581055 227.84800720214844 59.099998474121094 C225.91400146484375 62.63330078125 224.947998046875 66.13330078125 224.947998046875 69.5999984741211 C224.947998046875 72.2667007446289 225.81399536132812 73.5999984741211 227.54800415039062 73.5999984741211 C228.68099975585938 73.5999984741211 230.08099365234375 73.0999984741211 231.7480010986328 72.0999984741211 C232.68099975585938 71.56670379638672 233.6479949951172 70.9000015258789 234.6479949951172 70.0999984741211 C235.6479949951172 69.2332992553711 236.68099975585938 68.2332992553711 237.7480010986328 67.0999984741211 C238.1479949951172 66.63330078125 238.4810028076172 66.4000015258789 238.7480010986328 66.4000015258789 C239.01400756835938 66.4666976928711 239.1479949951172 66.63330078125 239.1479949951172 66.9000015258789 C239.1479949951172 67.16670227050781 239.01400756835938 67.43329620361328 238.7480010986328 67.69999694824219 C234.08099365234375 72.69999694824219 230.04800415039062 75.13330078125 226.6479949951172 75.0 Z M228.6479949951172 57.099998474121094 C229.9810028076172 55.766700744628906 231.281005859375 54.36669921875 232.54800415039062 52.900001525878906 C233.88099670410156 51.43330001831055 235.18099975585938 49.86669921875 236.447998046875 48.20000076293945 C237.91400146484375 46.266700744628906 239.1479949951172 44.46670150756836 240.1479949951172 42.79999923706055 C241.21400451660156 41.13330078125 242.01400756835938 39.56669998168945 242.54800415039062 38.099998474121094 C243.01400756835938 36.900001525878906 243.2480010986328 35.900001525878906 243.2480010986328 35.099998474121094 C243.2480010986328 34.03329849243164 242.88099670410156 33.5 242.1479949951172 33.5 C241.01400756835938 33.5 239.7480010986328 34.733299255371094 238.34800720214844 37.20000076293945 C236.4810028076172 40.33330154418945 234.7480010986328 43.56669998168945 233.1479949951172 46.900001525878906 C231.54800415039062 50.233299255371094 230.04800415039062 53.63330078125 228.6479949951172 57.099998474121094 Z M238.56100463867188 75.0999984741211 C237.0279998779297 75.0999984741211 236.26100158691406 74.0999984741211 236.26100158691406 72.0999984741211 C236.26100158691406 70.5 236.86099243164062 68.7667007446289 238.06100463867188 66.9000015258789 C240.86099243164062 62.70000076293945 243.8939971923828 59.86669921875 247.16099548339844 58.400001525878906 C248.56100463867188 57.733299255371094 249.92799377441406 57.400001525878906 251.26100158691406 57.400001525878906 C251.92799377441406 57.400001525878906 252.66099548339844 57.599998474121094 253.46099853515625 58.0 C254.26100158691406 58.33330154418945 254.66099548339844 58.83330154418945 254.66099548339844 59.5 C254.66099548339844 59.83330154418945 254.42799377441406 60.03329849243164 253.96099853515625 60.099998474121094 C253.69400024414062 60.16669845581055 253.49400329589844 60.233299255371094 253.36099243164062 60.29999923706055 C253.29400634765625 60.36669921875 253.22799682617188 60.43330001831055 253.16099548339844 60.5 C251.6280059814453 63.36669921875 250.86099243164062 66.0333023071289 250.86099243164062 68.5 C250.86099243164062 71.63330078125 252.093994140625 73.19999694824219 254.56100463867188 73.19999694824219 C257.1610107421875 73.19999694824219 260.3940124511719 71.16670227050781 264.260986328125 67.0999984741211 C264.593994140625 66.69999694824219 264.8609924316406 66.5 265.0610046386719 66.5 C265.260986328125 66.5 265.3609924316406 66.63330078125 265.3609924316406 66.9000015258789 C265.3609924316406 67.16670227050781 265.260986328125 67.4666976928711 265.0610046386719 67.80000305175781 C260.593994140625 72.5999984741211 256.6940002441406 75.0 253.36099243164062 75.0 C251.76100158691406 75.0 250.46099853515625 74.30000305175781 249.46099853515625 72.9000015258789 C248.3939971923828 71.43329620361328 247.8280029296875 69.66670227050781 247.76100158691406 67.5999984741211 C246.093994140625 69.80000305175781 244.42799377441406 71.63330078125 242.76100158691406 73.0999984741211 C241.0279998779297 74.43329620361328 239.6280059814453 75.0999984741211 238.56100463867188 75.0999984741211 Z M240.66099548339844 72.0999984741211 C241.3939971923828 72.0999984741211 242.36099243164062 71.5999984741211 243.56100463867188 70.5999984741211 C244.6280059814453 69.66670227050781 245.5279998779297 68.7667007446289 246.26100158691406 67.9000015258789 C246.99400329589844 66.9666976928711 247.5279998779297 66.0333023071289 247.86099243164062 65.0999984741211 C247.99400329589844 63.96670150756836 248.19400024414062 62.96670150756836 248.46099853515625 62.099998474121094 C248.79400634765625 61.16669845581055 249.1280059814453 60.33330154418945 249.46099853515625 59.599998474121094 C245.99400329589844 59.53329849243164 243.0279998779297 61.93330001831055 240.56100463867188 66.80000305175781 C239.8280029296875 68.13330078125 239.46099853515625 69.33329772949219 239.46099853515625 70.4000015258789 C239.46099853515625 71.5333023071289 239.86099243164062 72.0999984741211 240.66099548339844 72.0999984741211 Z M263.4280090332031 75.0999984741211 C262.96099853515625 75.0999984741211 262.5610046386719 74.9000015258789 262.2279968261719 74.5 C261.8949890136719 74.0999984741211 261.760986328125 73.7667007446289 261.8280029296875 73.5 L264.8280029296875 66.5999984741211 C266.5610046386719 62.53329849243164 267.4280090332031 60.06669998168945 267.4280090332031 59.20000076293945 C267.62799072265625 58.93330001831055 268.2950134277344 58.53329849243164 269.4280090332031 58.0 C269.69500732421875 57.86669921875 269.9280090332031 57.766700744628906 270.12799072265625 57.70000076293945 C270.3280029296875 57.63330078125 270.52801513671875 57.599998474121094 270.7279968261719 57.599998474121094 C271.19500732421875 57.599998474121094 271.4280090332031 57.900001525878906 271.4280090332031 58.5 C270.96099853515625 59.83330154418945 270.260986328125 61.56669998168945 269.3280029296875 63.70000076293945 C268.46099853515625 65.7667007446289 267.3280029296875 68.2667007446289 265.9280090332031 71.19999694824219 L276.62799072265625 59.70000076293945 C277.5610046386719 58.70000076293945 278.260986328125 58.20000076293945 278.7279968261719 58.20000076293945 C279.0610046386719 58.20000076293945 279.2279968261719 58.400001525878906 279.2279968261719 58.79999923706055 C279.2279968261719 58.93330001831055 279.19500732421875 59.099998474121094 279.12799072265625 59.29999923706055 C279.12799072265625 59.43330001831055 279.0950012207031 59.599998474121094 279.02801513671875 59.79999923706055 C277.62799072265625 64.66670227050781 276.9280090332031 68.0 276.9280090332031 69.80000305175781 C276.9280090332031 72.06670379638672 277.69500732421875 73.19999694824219 279.2279968261719 73.19999694824219 C280.62799072265625 73.19999694824219 282.2950134277344 72.43329620361328 284.2279968261719 70.9000015258789 C284.5610046386719 70.63330078125 285.0610046386719 70.16670227050781 285.7279968261719 69.5 C286.46099853515625 68.83329772949219 287.3280029296875 67.9666976928711 288.3280029296875 66.9000015258789 C288.5950012207031 66.63330078125 288.8609924316406 66.5 289.12799072265625 66.5 C289.3280029296875 66.5 289.4280090332031 66.63330078125 289.4280090332031 66.9000015258789 C289.4949951171875 67.0333023071289 289.4280090332031 67.2667007446289 289.2279968261719 67.5999984741211 C285.02801513671875 72.2667007446289 281.2950134277344 74.5999984741211 278.02801513671875 74.5999984741211 C275.0950012207031 74.5999984741211 273.62799072265625 72.30000305175781 273.62799072265625 67.69999694824219 C273.62799072265625 67.16670227050781 273.62799072265625 66.63330078125 273.62799072265625 66.0999984741211 C273.69500732421875 65.56670379638672 273.760986328125 65.0 273.8280029296875 64.4000015258789 L269.12799072265625 68.9000015258789 C268.5950012207031 69.36669921875 268.0610046386719 69.86669921875 267.52801513671875 70.4000015258789 C267.0610046386719 70.93329620361328 266.62799072265625 71.4666976928711 266.2279968261719 72.0 L264.2279968261719 74.5 C264.02801513671875 74.9000015258789 263.760986328125 75.0999984741211 263.4280090332031 75.0999984741211 Z M288.9519958496094 75.0999984741211 C287.4179992675781 75.0999984741211 286.6520080566406 74.0999984741211 286.6520080566406 72.0999984741211 C286.6520080566406 70.5 287.25201416015625 68.7667007446289 288.4519958496094 66.9000015258789 C291.25201416015625 62.70000076293945 294.2850036621094 59.86669921875 297.552001953125 58.400001525878906 C298.9519958496094 57.733299255371094 300.3179931640625 57.400001525878906 301.6520080566406 57.400001525878906 C302.3179931640625 57.400001525878906 303.052001953125 57.599998474121094 303.85198974609375 58.0 C304.6520080566406 58.33330154418945 305.052001953125 58.83330154418945 305.052001953125 59.5 C305.052001953125 59.83330154418945 304.8179931640625 60.03329849243164 304.35198974609375 60.099998474121094 C304.0849914550781 60.16669845581055 303.885009765625 60.233299255371094 303.75201416015625 60.29999923706055 C303.68499755859375 60.36669921875 303.6180114746094 60.43330001831055 303.552001953125 60.5 C302.01800537109375 63.36669921875 301.25201416015625 66.0333023071289 301.25201416015625 68.5 C301.25201416015625 71.63330078125 302.4849853515625 73.19999694824219 304.9519958496094 73.19999694824219 C307.552001953125 73.19999694824219 310.7850036621094 71.16670227050781 314.6520080566406 67.0999984741211 C314.9849853515625 66.69999694824219 315.25201416015625 66.5 315.4519958496094 66.5 C315.6520080566406 66.5 315.75201416015625 66.63330078125 315.75201416015625 66.9000015258789 C315.75201416015625 67.16670227050781 315.6520080566406 67.4666976928711 315.4519958496094 67.80000305175781 C310.9849853515625 72.5999984741211 307.0849914550781 75.0 303.75201416015625 75.0 C302.1520080566406 75.0 300.85198974609375 74.30000305175781 299.85198974609375 72.9000015258789 C298.7850036621094 71.43329620361328 298.2179870605469 69.66670227050781 298.1520080566406 67.5999984741211 C296.4849853515625 69.80000305175781 294.8179931640625 71.63330078125 293.1520080566406 73.0999984741211 C291.4179992675781 74.43329620361328 290.01800537109375 75.0999984741211 288.9519958496094 75.0999984741211 Z M291.052001953125 72.0999984741211 C291.7850036621094 72.0999984741211 292.75201416015625 71.5999984741211 293.9519958496094 70.5999984741211 C295.01800537109375 69.66670227050781 295.9179992675781 68.7667007446289 296.6520080566406 67.9000015258789 C297.385009765625 66.9666976928711 297.9179992675781 66.0333023071289 298.25201416015625 65.0999984741211 C298.385009765625 63.96670150756836 298.5849914550781 62.96670150756836 298.85198974609375 62.099998474121094 C299.18499755859375 61.16669845581055 299.51800537109375 60.33330154418945 299.85198974609375 59.599998474121094 C296.385009765625 59.53329849243164 293.4179992675781 61.93330001831055 290.9519958496094 66.80000305175781 C290.2179870605469 68.13330078125 289.85198974609375 69.33329772949219 289.85198974609375 70.4000015258789 C289.85198974609375 71.5333023071289 290.25201416015625 72.0999984741211 291.052001953125 72.0999984741211 Z "></path>
    </defs>
    <g style="mix-blend-mode:normal">
      <use xmlns:xlink="http://www.w3.org/1999/xlink" xlink:href="#s-Path_1-d1224" fill="#000000" fill-opacity="1.0"></use>
    </g>
    <g style="mix-blend-mode:normal">
      <use xmlns:xlink="http://www.w3.org/1999/xlink" xlink:href="#s-Path_2-d1224" fill="#000000" fill-opacity="1.0"></use>
    </g>
  </g>
</svg>
