<svg width="136" height="51" viewBox="0 0 136 51" fill="none" xmlns="http://www.w3.org/2000/svg">
<path d="M9.2975 33.84C6.6175 33.84 4.4575 33.38 2.8175 32.46C1.2975 31.54 0.5375 30.38 0.5375 28.98C0.5375 27.82 1.0775 26.64 2.1575 25.44C3.0775 24.52 4.6375 23.56 6.8375 22.56C9.3575 21.52 11.5975 21 13.5575 21C14.8375 21 15.9175 21.24 16.7975 21.72C16.9575 21.76 17.0375 21.84 17.0375 21.96C17.0375 22.08 16.9375 22.14 16.7375 22.14C16.5375 22.14 16.3775 22.12 16.2575 22.08C15.7375 21.96 15.1175 21.9 14.3975 21.9C12.4375 21.9 10.2775 22.38 7.9175 23.34C5.7175 24.26 4.2175 25.2 3.4175 26.16C2.5375 27.16 2.0975 28.06 2.0975 28.86C2.0975 29.9 2.7175 30.7 3.9575 31.26C5.2375 31.86 6.9575 32.16 9.1175 32.16C9.8375 32.16 10.5775 32.12 11.3375 32.04C12.1375 32 12.9375 31.9 13.7375 31.74C16.8975 31.26 19.3975 30.28 21.2375 28.8C22.9575 27.44 23.8175 25.86 23.8175 24.06C23.8175 22.34 23.0375 20.8 21.4775 19.44C21.1575 21.04 20.6775 22.5 20.0375 23.82C19.4375 25.1 18.6775 26.26 17.7575 27.3C15.7175 29.58 13.1975 30.84 10.1975 31.08C10.0775 31.08 9.9975 31 9.9575 30.84C9.9575 30.72 10.0375 30.64 10.1975 30.6C13.1975 30.36 15.6575 29.1 17.5775 26.82C19.3775 24.74 20.4775 22.12 20.8775 18.96C20.3575 18.52 19.7575 18.1 19.0775 17.7C17.1175 16.66 15.6975 15.7 14.8175 14.82C13.4175 13.5 12.7175 12.02 12.7175 10.38C12.7175 8.14 14.1375 6.02 16.9775 4.02C15.0175 1.98 12.6575 0.959998 9.8975 0.959998C8.3375 0.959998 6.7375 1.32 5.0975 2.04C3.8975 2.6 2.9175 3.52 2.1575 4.8C1.4375 6.08 1.0775 7.4 1.0775 8.76C1.0775 9.88 1.3175 10.84 1.7975 11.64C2.7575 13.08 4.1575 13.8 5.9975 13.8C7.7175 13.8 8.9975 13.16 9.8375 11.88C9.9175 11.8 9.9975 11.76 10.0775 11.76C10.1975 11.8 10.2575 11.88 10.2575 12C10.2575 12.52 9.6775 13.06 8.5175 13.62C7.5575 14.02 6.6975 14.22 5.9375 14.22C3.8975 14.22 2.3575 13.44 1.3175 11.88C0.7575 11 0.4775 10 0.4775 8.88C0.4775 7.44 0.8775 6.02 1.6775 4.62C2.5175 3.22 3.5975 2.22 4.9175 1.62C6.7175 0.819998 8.5175 0.419998 10.3175 0.419998C13.3975 0.419998 15.9175 1.44 17.8775 3.48C20.9175 1.6 23.6575 0.539998 26.0975 0.299998C26.2575 0.259998 26.3975 0.239999 26.5175 0.239999C26.6775 0.239999 26.8375 0.239999 26.9975 0.239999C29.5575 0.239999 30.9775 1.16 31.2575 3C31.3375 3.08 31.3375 3.22 31.2575 3.42L31.1975 3.72C31.1975 3.84 31.2375 3.86 31.3175 3.78L32.2175 3.24H32.3375C32.7775 3.24 32.9975 3.44 32.9975 3.84C32.9975 4.32 32.7775 4.84 32.3375 5.4C30.4575 7.4 29.3175 8.4 28.9175 8.4C28.7975 8.4 28.7375 8.32 28.7375 8.16C28.7375 7.76 29.1175 6.82 29.8775 5.34C30.1975 4.7 30.3575 4.18 30.3575 3.78C30.3575 2.42 29.2975 1.8 27.1775 1.92L25.9775 1.98C24.6575 2.02 23.3975 2.28 22.1975 2.76C20.9975 3.2 19.8375 3.76 18.7175 4.44C20.8375 7.28 21.8975 10.82 21.8975 15.06C21.8975 15.98 21.8375 16.9 21.7175 17.82C24.8375 19.66 26.3975 21.74 26.3975 24.06C26.3975 26.18 25.0375 28.2 22.3175 30.12C19.7175 31.88 16.8375 33 13.6775 33.48C12.1175 33.72 10.6575 33.84 9.2975 33.84ZM21.1175 15.84C21.1175 11.52 20.0375 7.92 17.8775 5.04C15.6775 6.72 14.5775 8.54 14.5775 10.5C14.5775 11.74 15.0375 12.86 15.9575 13.86C16.8775 14.86 18.1975 15.84 19.9175 16.8L21.1175 17.46V15.84ZM33.1789 30.24C32.0189 30 31.4389 29.08 31.4389 27.48C31.4389 26.44 31.6989 25.42 32.2189 24.42L31.8589 24.78L30.4189 26.1C30.2989 26.26 30.1789 26.34 30.0589 26.34C29.8589 26.34 29.7589 26.24 29.7589 26.04C29.8389 25.84 29.9789 25.64 30.1789 25.44C30.9389 24.76 31.6589 24.06 32.3389 23.34C33.0189 22.58 33.6589 21.8 34.2589 21C34.5789 20.64 34.9389 20.46 35.3389 20.46C35.8189 20.46 36.0589 20.66 36.0589 21.06C36.0589 21.26 35.6989 21.96 34.9789 23.16C34.5789 23.84 34.2589 24.38 34.0189 24.78C33.7789 25.18 33.6389 25.42 33.5989 25.5C33.1589 26.46 32.9389 27.3 32.9389 28.02C32.9389 28.66 33.0989 29.02 33.4189 29.1L33.8389 29.16C34.6389 29.16 35.5389 28.62 36.5389 27.54C37.5389 26.42 38.3989 25.08 39.1189 23.52C38.9989 21.72 39.1989 20.3 39.7189 19.26C40.1989 18.38 40.7389 17.94 41.3389 17.94C42.0189 17.94 42.3589 18.38 42.3589 19.26C42.3589 19.38 42.3189 19.6 42.2389 19.92C41.9589 21.16 41.2389 22.26 40.0789 23.22C40.1189 24.1 40.4789 24.92 41.1589 25.68C41.8389 26.4 42.6589 26.76 43.6189 26.76C44.6989 26.76 45.7389 26.22 46.7389 25.14C47.0589 24.82 47.2389 24.76 47.2789 24.96C47.3189 25 47.3389 25.08 47.3389 25.2C47.3389 25.28 47.2789 25.42 47.1589 25.62C46.1189 26.78 44.9189 27.36 43.5589 27.36C42.5989 27.36 41.7389 27.08 40.9789 26.52C40.2189 25.92 39.6989 25.2 39.4189 24.36C38.6189 26.16 37.5989 27.64 36.3589 28.8C35.1589 29.92 34.0989 30.4 33.1789 30.24ZM56.0108 15C55.6508 15 55.3308 14.86 55.0508 14.58C54.7708 14.26 54.6308 13.92 54.6308 13.56C54.6308 13.04 54.8308 12.64 55.2308 12.36C55.5508 12.08 55.9108 11.94 56.3108 11.94C57.2308 11.94 57.6908 12.34 57.6908 13.14C57.6908 14.38 57.1308 15 56.0108 15ZM27.8708 50.04C25.9908 50.04 24.5108 49.56 23.4308 48.6C22.3108 47.68 21.7508 46.48 21.7508 45C21.7508 43.32 22.6308 41.54 24.3908 39.66C26.3508 37.58 29.1308 35.74 32.7308 34.14C36.8108 32.3 41.5308 30.74 46.8908 29.46C47.2908 28.3 47.6108 27.32 47.8508 26.52C48.1308 25.72 48.3508 25.12 48.5108 24.72C49.2708 22.72 49.9708 21.4 50.6108 20.76C51.0908 20.28 51.7308 20.04 52.5308 20.04C53.3308 20.04 53.7308 20.22 53.7308 20.58C53.7308 20.66 53.6908 20.74 53.6108 20.82C53.1708 21.3 52.6508 22.02 52.0508 22.98C51.4908 23.9 50.9508 24.88 50.4308 25.92C49.9508 26.96 49.5508 27.94 49.2308 28.86C49.5508 28.78 49.8308 28.74 50.0708 28.74C50.3508 28.74 50.6308 28.74 50.9108 28.74C53.4708 28.74 54.7508 29.38 54.7508 30.66C54.7508 31.34 54.3708 32 53.6108 32.64C53.5708 32.76 53.4908 32.82 53.3708 32.82C53.2108 32.82 53.1308 32.76 53.1308 32.64C53.1308 32.48 53.1908 32.38 53.3108 32.34C53.7908 31.78 54.0308 31.32 54.0308 30.96C54.0308 30.16 53.2308 29.76 51.6308 29.76L48.6308 30.24C46.3508 35.72 43.4708 40.26 39.9908 43.86C35.9908 47.98 31.9508 50.04 27.8708 50.04ZM27.7508 48.84C29.2308 48.84 31.0108 48.36 33.0908 47.4C36.2508 45.96 39.0108 43.6 41.3708 40.32C43.0908 37.88 44.8308 34.6 46.5908 30.48C44.5908 31 42.8308 31.48 41.3108 31.92C39.7508 32.4 38.4508 32.84 37.4108 33.24C35.6508 33.88 34.0708 34.54 32.6708 35.22C31.2308 35.94 29.9708 36.68 28.8908 37.44C28.1308 38 27.4508 38.6 26.8508 39.24C26.2108 39.88 25.6708 40.58 25.2308 41.34C24.3908 42.7 23.9708 44.04 23.9708 45.36C23.9708 47.68 25.2308 48.84 27.7508 48.84ZM59.2072 30.54C56.8872 30.54 55.7272 29.26 55.7272 26.7C55.7272 25.82 56.0472 24.72 56.6872 23.4C57.3272 22.04 58.1072 20.92 59.0272 20.04C60.1472 19 61.1672 18.48 62.0872 18.48C63.3272 18.48 63.9472 19.1 63.9472 20.34C63.9472 21.14 63.6272 21.94 62.9872 22.74C61.7872 24.18 60.1072 25.16 57.9472 25.68C57.9072 25.96 57.8672 26.22 57.8272 26.46C57.8272 26.66 57.8272 26.86 57.8272 27.06C57.8272 28.74 58.6072 29.58 60.1672 29.58C61.4072 29.58 62.9672 29.06 64.8472 28.02C65.6472 27.58 66.3672 27.12 67.0072 26.64C67.6472 26.16 68.1872 25.7 68.6272 25.26C69.1072 24.7 69.3472 24.66 69.3472 25.14C69.3472 25.34 69.2672 25.52 69.1072 25.68C68.6672 26.2 68.0872 26.74 67.3672 27.3C66.6872 27.82 65.8472 28.34 64.8472 28.86C62.7272 29.98 60.8472 30.54 59.2072 30.54ZM58.1872 25.02C60.1472 24.38 61.4872 23.42 62.2072 22.14C62.6872 21.34 62.9272 20.66 62.9272 20.1C62.9272 19.66 62.7872 19.44 62.5072 19.44C62.1872 19.44 61.7472 19.74 61.1872 20.34C60.6272 20.9 60.0672 21.6 59.5072 22.44C58.9872 23.28 58.5472 24.14 58.1872 25.02ZM72.1034 30C70.5034 29.96 69.5234 29.14 69.1634 27.54C69.1234 27.26 69.0834 27 69.0434 26.76C69.0434 26.52 69.0434 26.28 69.0434 26.04C69.0434 24.52 69.4634 22.78 70.3034 20.82C69.7834 20.86 69.4034 20.88 69.1634 20.88C68.9234 20.88 68.8434 20.9 68.9234 20.94C68.2834 20.86 67.9634 20.6 67.9634 20.16V20.04C67.9634 19.76 68.2434 19.62 68.8034 19.62L69.8834 19.56H70.9634C71.1234 19.24 71.3634 18.78 71.6834 18.18C72.0034 17.54 72.4234 16.78 72.9434 15.9C73.2234 15.42 73.5434 14.88 73.9034 14.28C74.3034 13.68 74.7234 13.04 75.1634 12.36C75.7234 11.88 76.4034 11.64 77.2034 11.64C77.9234 11.64 78.2834 11.82 78.2834 12.18C78.2834 12.26 78.2434 12.34 78.1634 12.42C77.6434 13.14 76.9834 14.1 76.1834 15.3C75.3834 16.5 74.4434 17.92 73.3634 19.56H79.2434C79.6034 19.68 79.7834 19.84 79.7834 20.04C79.7834 20.4 79.3434 20.64 78.4634 20.76C78.3034 20.8 77.7434 20.82 76.7834 20.82C75.8234 20.82 74.4634 20.82 72.7034 20.82C71.4634 23.14 70.8434 25.02 70.8434 26.46C70.8434 28.1 71.5434 28.92 72.9434 28.92C73.6234 28.92 74.3634 28.7 75.1634 28.26C75.7234 27.94 76.3034 27.54 76.9034 27.06C77.5034 26.54 78.1234 25.94 78.7634 25.26C78.9634 25.02 79.1434 24.9 79.3034 24.9C79.4634 24.9 79.5434 24.98 79.5434 25.14C79.5434 25.34 79.4834 25.5 79.3634 25.62C76.5634 28.58 74.1434 30.04 72.1034 30ZM81.7573 30C79.8773 29.92 78.9373 28.8 78.9373 26.64C78.9373 26.08 78.9973 25.4 79.1173 24.6C79.2773 23.8 79.4973 22.88 79.7773 21.84C80.1773 20.48 80.7373 18.98 81.4573 17.34C82.1773 15.66 83.0773 13.84 84.1573 11.88C86.9173 6.76 89.2773 4.2 91.2373 4.2C92.3173 4.2 92.8573 4.84 92.8573 6.12C92.8573 6.68 92.7373 7.3 92.4973 7.98C91.3773 11.54 88.0373 15.7 82.4773 20.46C81.3173 22.58 80.7373 24.68 80.7373 26.76C80.7373 28.36 81.2573 29.16 82.2973 29.16C82.9773 29.16 83.8173 28.86 84.8173 28.26C85.3773 27.94 85.9573 27.54 86.5573 27.06C87.1573 26.54 87.7773 25.94 88.4173 25.26C88.6573 24.98 88.8573 24.84 89.0173 24.84C89.1773 24.88 89.2573 24.98 89.2573 25.14C89.2573 25.3 89.1773 25.46 89.0173 25.62C86.2173 28.62 83.7973 30.08 81.7573 30ZM82.9573 19.26C83.7573 18.46 84.5373 17.62 85.2973 16.74C86.0973 15.86 86.8773 14.92 87.6373 13.92C88.5173 12.76 89.2573 11.68 89.8573 10.68C90.4973 9.68 90.9773 8.74 91.2973 7.86C91.5773 7.14 91.7173 6.54 91.7173 6.06C91.7173 5.42 91.4973 5.1 91.0573 5.1C90.3773 5.1 89.6173 5.84 88.7773 7.32C87.6573 9.2 86.6173 11.14 85.6573 13.14C84.6973 15.14 83.7973 17.18 82.9573 19.26ZM88.9053 30.06C87.9853 30.06 87.5253 29.46 87.5253 28.26C87.5253 27.3 87.8853 26.26 88.6053 25.14C90.2853 22.62 92.1053 20.92 94.0653 20.04C94.9053 19.64 95.7253 19.44 96.5253 19.44C96.9253 19.44 97.3653 19.56 97.8453 19.8C98.3253 20 98.5653 20.3 98.5653 20.7C98.5653 20.9 98.4253 21.02 98.1453 21.06C97.9853 21.1 97.8653 21.14 97.7853 21.18C97.7453 21.22 97.7053 21.26 97.6653 21.3C96.7453 23.02 96.2853 24.62 96.2853 26.1C96.2853 27.98 97.0253 28.92 98.5053 28.92C100.065 28.92 102.005 27.7 104.325 25.26C104.525 25.02 104.685 24.9 104.805 24.9C104.925 24.9 104.985 24.98 104.985 25.14C104.985 25.3 104.925 25.48 104.805 25.68C102.125 28.56 99.7853 30 97.7853 30C96.8253 30 96.0453 29.58 95.4453 28.74C94.8053 27.86 94.4653 26.8 94.4253 25.56C93.4253 26.88 92.4253 27.98 91.4253 28.86C90.3853 29.66 89.5453 30.06 88.9053 30.06ZM90.1653 28.26C90.6053 28.26 91.1853 27.96 91.9053 27.36C92.5453 26.8 93.0853 26.26 93.5253 25.74C93.9653 25.18 94.2853 24.62 94.4853 24.06C94.5653 23.38 94.6853 22.78 94.8453 22.26C95.0453 21.7 95.2453 21.2 95.4453 20.76C93.3653 20.72 91.5853 22.16 90.1053 25.08C89.6653 25.88 89.4453 26.6 89.4453 27.24C89.4453 27.92 89.6853 28.26 90.1653 28.26ZM103.826 30.06C103.546 30.06 103.306 29.94 103.106 29.7C102.906 29.46 102.826 29.26 102.866 29.1L104.666 24.96C105.706 22.52 106.226 21.04 106.226 20.52C106.346 20.36 106.746 20.12 107.426 19.8C107.586 19.72 107.726 19.66 107.846 19.62C107.966 19.58 108.086 19.56 108.206 19.56C108.486 19.56 108.626 19.74 108.626 20.1C108.346 20.9 107.926 21.94 107.366 23.22C106.846 24.46 106.166 25.96 105.326 27.72L111.746 20.82C112.306 20.22 112.726 19.92 113.006 19.92C113.206 19.92 113.306 20.04 113.306 20.28C113.306 20.36 113.286 20.46 113.246 20.58C113.246 20.66 113.226 20.76 113.186 20.88C112.346 23.8 111.926 25.8 111.926 26.88C111.926 28.24 112.386 28.92 113.306 28.92C114.146 28.92 115.146 28.46 116.306 27.54C116.506 27.38 116.806 27.1 117.206 26.7C117.646 26.3 118.166 25.78 118.766 25.14C118.926 24.98 119.086 24.9 119.246 24.9C119.366 24.9 119.426 24.98 119.426 25.14C119.466 25.22 119.426 25.36 119.306 25.56C116.786 28.36 114.546 29.76 112.586 29.76C110.826 29.76 109.946 28.38 109.946 25.62C109.946 25.3 109.946 24.98 109.946 24.66C109.986 24.34 110.026 24 110.066 23.64L107.246 26.34C106.926 26.62 106.606 26.92 106.286 27.24C106.006 27.56 105.746 27.88 105.506 28.2L104.306 29.7C104.186 29.94 104.026 30.06 103.826 30.06ZM119.14 30.06C118.22 30.06 117.76 29.46 117.76 28.26C117.76 27.3 118.12 26.26 118.84 25.14C120.52 22.62 122.34 20.92 124.3 20.04C125.14 19.64 125.96 19.44 126.76 19.44C127.16 19.44 127.6 19.56 128.08 19.8C128.56 20 128.8 20.3 128.8 20.7C128.8 20.9 128.66 21.02 128.38 21.06C128.22 21.1 128.1 21.14 128.02 21.18C127.98 21.22 127.94 21.26 127.9 21.3C126.98 23.02 126.52 24.62 126.52 26.1C126.52 27.98 127.26 28.92 128.74 28.92C130.3 28.92 132.24 27.7 134.56 25.26C134.76 25.02 134.92 24.9 135.04 24.9C135.16 24.9 135.22 24.98 135.22 25.14C135.22 25.3 135.16 25.48 135.04 25.68C132.36 28.56 130.02 30 128.02 30C127.06 30 126.28 29.58 125.68 28.74C125.04 27.86 124.7 26.8 124.66 25.56C123.66 26.88 122.66 27.98 121.66 28.86C120.62 29.66 119.78 30.06 119.14 30.06ZM120.4 28.26C120.84 28.26 121.42 27.96 122.14 27.36C122.78 26.8 123.32 26.26 123.76 25.74C124.2 25.18 124.52 24.62 124.72 24.06C124.8 23.38 124.92 22.78 125.08 22.26C125.28 21.7 125.48 21.2 125.68 20.76C123.6 20.72 121.82 22.16 120.34 25.08C119.9 25.88 119.68 26.6 119.68 27.24C119.68 27.92 119.92 28.26 120.4 28.26Z" fill="black"/>
</svg>
